# xmcd
#
# Track frame offsets:
#	150
#	15397
#	29410
#	42799
#	57083
#	72677
#	87156
#	97390
#	109725
#	121380
#	133556
#	144099
#	157294
#	169198
#
# Disc length: 2447 seconds
#
# Revision: 0
# Processed by: cddbd v1.5.2PL0 Copyright (c) Steve Scherf et al.
# Submitted via: EasyCDDAExtractor 9.0.0.1
#
DISCID=c2098d0e
DTITLE=Wild Billy Childish And The Musicians Of The British Empire - Punk Rock
DTITLE=At The British Legion Hall
DYEAR=2007
DGENRE=Blues
TTITLE0=Joe Strummer's Grave
TTITLE1=Birthday Boy
TTITLE2=Dandylion Clock
TTITLE3=Date With Doug
TTITLE4=Bugger The Buffs
TTITLE5=So Unbelievably Generous
TTITLE6=Walking Off The Map
TTITLE7=Snack Crack
TTITLE8=Comb Over Mod
TTITLE9=We 4 Beatles Of Liverpool Are
TTITLE10=Bottomless Pit
TTITLE11=Unfold Me
TTITLE12=A Few Smart Men
TTITLE13=Punk Rock At The British Legion Hall
EXTD=
EXTT0=
EXTT1=
EXTT2=
EXTT3=
EXTT4=
EXTT5=
EXTT6=
EXTT7=
EXTT8=
EXTT9=
EXTT10=
EXTT11=
EXTT12=
EXTT13=
PLAYORDER=
